<svg viewBox="0 0 24 24" fill="#286EFA" xmlns="http://www.w3.org/2000/svg"><path d="M20.918 0H3.082A3.082 3.082 0 0 0 0 3.082v17.836A3.082 3.082 0 0 0 3.082 24h17.836A3.082 3.082 0 0 0 24 20.918V3.082A3.082 3.082 0 0 0 20.918 0zM12 5.116a7.636 7.636 0 0 1 5.082 1.94.546.546 0 1 1-.727.816A6.544 6.544 0 0 0 12 6.208a6.544 6.544 0 0 0-4.355 1.664.546.546 0 1 1-.727-.816A7.636 7.636 0 0 1 12 5.116zm0 2.182a5.455 5.455 0 0 1 3.927 1.636.546.546 0 1 1-.764.78A4.364 4.364 0 0 0 12 8.39a4.364 4.364 0 0 0-3.163 1.323.546.546 0 1 1-.764-.78A5.455 5.455 0 0 1 12 7.298zm0 2.182a3.273 3.273 0 0 1 2.618 1.31.546.546 0 1 1-.873.655A2.182 2.182 0 0 0 12 10.572a2.182 2.182 0 0 0-1.745.873.546.546 0 1 1-.873-.655A3.273 3.273 0 0 1 12 9.48zm0 2.182a1.09 1.09 0 0 1 1.09 1.09.546.546 0 0 1-1.09 0 .546.546 0 0 1-.546-.546A1.09 1.09 0 0 1 12 11.662zm-6.545 6.545c0 .301-.245.546-.546.546a.546.546 0 0 1-.546-.546v-8.16a.546.546 0 0 1 1.091 0v8.16zm2.727.546a.546.546 0 0 1-.546-.546v-9.6a.546.546 0 0 1 1.091 0v9.6a.546.546 0 0 1-.545.546zm2.727.327a.546.546 0 0 1-.545-.545v-9.818a.546.546 0 0 1 1.09 0v9.818a.546.546 0 0 1-.545.545zm2.727-.327a.546.546 0 0 1-.546-.546v-9.6a.546.546 0 0 1 1.091 0v9.6a.546.546 0 0 1-.545.546zm2.727-.546a.546.546 0 0 1-.546-.546v-8.16a.546.546 0 0 1 1.091 0v8.16a.546.546 0 0 1-.545.546z"/></svg>