<svg viewBox="0 0 100 100" fill="none" xmlns="http://www.w3.org/2000/svg"><path d="M1.22541 61.5228c-.2225-.9485.90748-1.5459 1.59638-.857L39.3342 97.1782c.6889.6889.0915 1.8189-.857 1.5964C20.0515 94.4522 5.54779 79.9485 1.22541 61.5228zM.00189135 46.8891c-.01764375.2833.08887 .5599.28957.7606L52.3503 99.7085c.2007.2007.4773.3072.7606.2896 2.3692-.1476 4.6938-.46 6.9624-.9259.7645-.157 1.0301-1.0963.4782-1.6481L2.57595 39.4485c-.55186-.5519-1.49117-.2863-1.64818.4782-.46592 2.2686-.77931 4.5932-.92588 6.9624zM4.21093 29.7054c-.16649.3738-.08169.8106.21106 1.1034l64.7719 64.7719c.2928.2928.7296.3776 1.1034.2111 1.7138-.7648 3.3763-1.6244 4.9738-2.5699.5028-.2955.5944-1.0017.1899-1.4062L7.60626 24.5316c-.40453-.4045-1.11069-.313-1.40617.1899-1.9456 1.5975-2.80511 3.26-3.56993 4.9739zM12.0495 18.7571c-.3479.2991-.4075.8089-.1368 1.1847l68.2057 68.2057c.3758.2707.8856.2111 1.1847-.1368 1.3684-1.5908 2.6546-3.2592 3.8396-4.9995.2031-.2939.1676-.6955-.0849-.9479L16.9468 14.9174c-.2524-.2524-.6539-.288-.9479-.0849-1.7402 1.1851-3.4086 2.4712-4.9994 3.8396zM22.0978 11.7767c-.2988.2291-.4094.6361-.2649.9899L89.2234 79.169c.3538.1445.7608.0339.9899-.2649 1.2768-1.6654 2.4793-3.3979 3.6046-5.1855.1885-.2995.1448-.688-.1035-.9363L29.1891 8.07173c-.2483-.24831-.6368-.29198-.9363-.10352-1.7876 1.12526-3.5201 2.32777-5.1855 3.60459zM34.1353 7.06959c-.2417.1812-.3469.4946-.2647.7884L92.1466 65.8903c.2938.0822.6072-.023.7884-.2647 1.0632-1.4186 2.0812-2.891 3.0488-4.4082.2027-.3183.1699-.7334-.0793-.9826L39.4861 4.02106c-.2492-.24921-.6643-.28204-.9826-.07929-1.5172.96765-2.9896 1.98556-4.4082 3.04782zM48.2007 3.60982c-.1842.1431-.2904.3676-.2775.6011L96.4001 52.0776c.2335.0129.4579-.0933.6011-.2775.7934-1.0217 1.5611-2.0716 2.3011-3.1491.2116-.3037.1906-.7101-.0497-.9878L51.249 1.32282c-.2777-.24065-.6841-.26135-.9878-.0497-.8775.74003-1.7274 1.50733-2.3007 2.34673zM63.5565 1.38589c-.1249.0918-.2033.2334-.2187.3882L98.2269 36.6437c.1548-.0154.2964-.0938.3882-.2187.585-.7951 1.1549-1.6051 1.7055-2.4289.1906-.2854.1601-.6662-.0739-.9142L66.9705.1504c-.248-.23407-.6288-.26454-.9142-.0739-.8239.5506-1.6338 1.12059-2.4289 1.70549z" fill="#5E6AD2"/></svg>