<svg width="256" height="256" viewBox="0 0 256 256" xmlns="http://www.w3.org/2000/svg">
  <rect width="256" height="256" rx="48" fill="#7f54b3"/>
  <path fill="#ffffff" d="M37 86c3.5-8 11-13 20-13 13 0 20 9 22 25 3 22 5 39 7 55 6-12 12-25 17-38 6-14 10-27 12-36 2-8 7-13 15-13 10 0 17 6 18 16 1 6 3 18 6 33 2 14 5 26 7 37 3-17 7-35 12-55 4-16 8-26 12-31 4-4 9-6 15-6 6 1 11 3 14 8 3 4 4 9 3 15 0 4-2 10-4 18-6 22-12 44-17 66-3 13-6 22-9 28-4 7-9 10-16 10-6 0-11-3-14-8-2-4-4-10-6-19-3-16-6-32-9-49-8 18-15 33-21 45-7 15-12 24-16 27-4 4-9 5-14 4-6-1-10-5-12-11-2-5-4-14-6-27-3-22-6-44-8-66-1-6 0-11 2-15z"/>
</svg>
