<svg viewBox="0 0 24 24" fill="#FF4A00" xmlns="http://www.w3.org/2000/svg"><path d="M14.896 11.996c0-.29-.01-.58-.02-.868l5.968-3.414A12.07 12.07 0 0 1 22 11.997c0 1.528-.285 2.99-.806 4.334l-5.978-3.44a9.955 9.955 0 0 0 .025-.52-.022.022 0 0 0 .017.025l-.362.6zM12.024 3.01c1.89 0 3.66.54 5.164 1.47l-3.454 5.984a3.98 3.98 0 0 0-1.68-.356c-.616 0-1.194.152-1.704.42L7.028 4.66A10.942 10.942 0 0 1 12.024 3zM3.14 7.738l5.974 3.438a3.98 3.98 0 0 0-.155 1.19l-5.998 3.455A10.97 10.97 0 0 1 2.01 12c0-1.574.33-3.07.924-4.424l.205.162zm1.8 9.526 3.45-5.986c.57.434 1.27.692 2.03.692.638 0 1.232-.17 1.748-.464l3.344 5.79A10.918 10.918 0 0 1 12.024 21c-2.72 0-5.216-.99-7.144-2.624l.061-.112z"/></svg>